<svg id="visual" viewBox="0 0 960 540" width="960" height="540" xmlns="http://www.w3.org/2000/svg" xmlns:xlink="http://www.w3.org/1999/xlink" version="1.1"><rect x="0" y="0" width="960" height="540" fill="#000000"></rect><path d="M0 397L22.8 401.5C45.7 406 91.3 415 137 422.8C182.7 430.7 228.3 437.3 274 443.8C319.7 450.3 365.3 456.7 411.2 444.7C457 432.7 503 402.3 548.8 397C594.7 391.7 640.3 411.3 686 421C731.7 430.7 777.3 430.3 823 426C868.7 421.7 914.3 413.3 937.2 409.2L960 405L960 541L937.2 541C914.3 541 868.7 541 823 541C777.3 541 731.7 541 686 541C640.3 541 594.7 541 548.8 541C503 541 457 541 411.2 541C365.3 541 319.7 541 274 541C228.3 541 182.7 541 137 541C91.3 541 45.7 541 22.8 541L0 541Z" fill="#ffffff" stroke-linecap="round" stroke-linejoin="miter"></path></svg>